# xmcd CD database file
#
# Track frame offsets:
#	150
#	14092
#	27058
#	41015
#	55180
#	69125
#	93957
#	107559
#	120534
#	138448
#	163282
#	173928
#	190626
#	204342
#	218281
#	232655
#	245638
#	268811
#
# Disc length: 3903 seconds
#
# Revision: 0
# Processed by: cddbd v1.5.2PL0 Copyright (c) Steve Scherf et al.
# Submitted via: CDex 1.77
#
DISCID=ed0f3d12
DTITLE=Alex and Ivan - AS MAIS TOCADAS
DYEAR=2014
DGENRE=Country
TTITLE0=AMANTE CARINHOSO
TTITLE1=OS BRUTOS TAMBEM AMAM
TTITLE2=VOU BEIJAR
TTITLE3=TO PODENDO
TTITLE4=SOU SERTANEJO
TTITLE5=PENSE EM MIM
TTITLE6=VIROU ROTINA
TTITLE7=BRASA VIVA
TTITLE8=VIOLACO
TTITLE9=FLOR DE GOIAS
TTITLE10=COMITIVA DE SOLTEIROS
TTITLE11=VIDA CINZENTA
TTITLE12=MIRAGEM
TTITLE13=CAIPIRA NATO
TTITLE14=AMOR DE VIOLEIRO
TTITLE15=SOLTEIRO BACANA
TTITLE16=LINHA DE FRENTE
TTITLE17=PIRIGUETE
EXTD=YEAR: 2014
EXTT0=
EXTT1=
EXTT2=
EXTT3=
EXTT4=
EXTT5=
EXTT6=
EXTT7=
EXTT8=
EXTT9=
EXTT10=
EXTT11=
EXTT12=
EXTT13=
EXTT14=
EXTT15=
EXTT16=
EXTT17=
PLAYORDER=
